<svg id="Layer_1" data-name="Layer 1" xmlns="http://www.w3.org/2000/svg" viewBox="0 0 168.57 74.95"><defs><style>.cls-1{fill:#fff;}</style></defs><title>contra-logo</title><path class="cls-1" d="M38.36,48.51c-2,1-6.38,2-12.12,2C9.93,50.54,1.53,40.39,1.53,27,1.53,10.85,13,1.89,27.29,1.89,32.83,1.89,37,3,38.92,4l-2.17,8.47a23.06,23.06,0,0,0-9-1.75c-8.47,0-15,5.11-15,15.61,0,9.45,5.6,15.4,15.12,15.4a26.72,26.72,0,0,0,8.9-1.54Z"/><path class="cls-1" d="M68.53,32.34c0,12.53-8.9,18.27-18.07,18.27-10,0-17.71-6.58-17.71-17.64S40,14.84,51,14.84C61.52,14.84,68.53,22.05,68.53,32.34Zm-24.79.35c0,5.88,2.45,10.29,7,10.29,4.13,0,6.79-4.13,6.79-10.29,0-5.11-2-10.29-6.79-10.29C45.63,22.4,43.74,27.65,43.74,32.69Z"/><path class="cls-1" d="M67.61,26.53c0-4.27-.14-7.91-.28-10.92h9.24l.49,4.69h.21a12.53,12.53,0,0,1,10.57-5.46c7,0,12.25,4.62,12.25,14.7v20.3H89.45v-19c0-4.41-1.54-7.42-5.39-7.42a5.68,5.68,0,0,0-5.39,4,7.31,7.31,0,0,0-.42,2.66V49.84H67.61Z"/><path class="cls-1" d="M112.62,5.81v9.8h7.63v7.84h-7.63V35.84c0,4.13,1,6,4.2,6a17.38,17.38,0,0,0,3.15-.28l.07,8.05a20.87,20.87,0,0,1-6.93.91,11.07,11.07,0,0,1-8-2.94c-2-2-2.94-5.32-2.94-10.15v-14H97.64V15.61h4.55V8.19Z"/><path class="cls-1" d="M119.9,26.88c0-5-.14-8.33-.28-11.27h9.17l.35,6.3h.28a10.05,10.05,0,0,1,9.24-7.07,11,11,0,0,1,2.24.14V25a15.25,15.25,0,0,0-2.87-.28c-3.92,0-6.58,2.1-7.28,5.39a12.55,12.55,0,0,0-.21,2.38V49.84H119.9Z"/><path class="cls-1" d="M157.91,49.84l-.63-3.43h-.21a12.33,12.33,0,0,1-9.8,4.2c-6.93,0-11.06-5-11.06-10.5,0-8.89,8-13.16,20.09-13.09v-.49c0-1.82-1-4.41-6.23-4.41a19.25,19.25,0,0,0-9.45,2.59l-2.32-7.77c2.38-1.33,7.43-2.1,13.66-2.1,11.41,0,15,6.72,15,14.77v11.9a53,53,0,0,0,.49,8.33Zm-1.26-16.17c-5.6-.07-9.94,1.26-9.94,5.39,0,2.73,1.82,4.06,4.2,4.06a5.81,5.81,0,0,0,5.53-3.92,7.63,7.63,0,0,0,.21-1.82Z"/><path class="cls-1" d="M20.23,62.77a5.82,5.82,0,0,0-1.22.11v6.38a7.63,7.63,0,0,0,1,.06,3.11,3.11,0,0,0,3.45-3.43C23.52,64,22.44,62.77,20.23,62.77Z"/><path class="cls-1" d="M1.52,59V73h166V59ZM23.43,69a4.94,4.94,0,0,1-3.57,1.17,16.58,16.58,0,0,1-1.89-.1v-8a14.3,14.3,0,0,1,2.21-.17,4.65,4.65,0,0,1,3.28,1,3.71,3.71,0,0,1,1.14,2.9A4.25,4.25,0,0,1,23.43,69Zm26.39,1.09H45.28V62h4.36v.88H46.32v2.55h3.14v.86H46.32v2.92h3.5Zm22.34.12a4.21,4.21,0,0,1-2.07-.51l.27-.88a3.65,3.65,0,0,0,1.87.53c1.07,0,1.69-.56,1.69-1.38s-.43-1.19-1.52-1.61c-1.32-.46-2.14-1.15-2.14-2.29s1-2.19,2.62-2.19a3.72,3.72,0,0,1,1.78.39l-.29.86a3.11,3.11,0,0,0-1.53-.39c-1.1,0-1.52.66-1.52,1.21,0,.76.49,1.13,1.6,1.56C74.29,66,75,66.69,75,67.88S74.06,70.2,72.16,70.2Zm24.62-.12h-1V62h1Zm27.3-.36a7.46,7.46,0,0,1-2.49.45,3.79,3.79,0,0,1-4.14-4.08,4,4,0,0,1,4.37-4.17,5,5,0,0,1,2,.37l-.25.85a4.28,4.28,0,0,0-1.79-.35A3,3,0,0,0,118.55,66a3,3,0,0,0,3.12,3.26,3.43,3.43,0,0,0,1.39-.21V66.68h-1.65v-.84h2.67Zm27,.36H150L147.44,66a26.34,26.34,0,0,1-1.51-2.7l0,0c.06,1,.08,2,.08,3.33v3.45h-1V62h1.14l2.59,4.09a23.83,23.83,0,0,1,1.45,2.63l0,0c-.09-1.07-.12-2.06-.12-3.32V62h1Z"/></svg>